<svg width="258" height="67" viewBox="0 0 258 67" fill="none" xmlns="http://www.w3.org/2000/svg">
<path d="M78.157 19.0078V30.7451H75.1697V29.262C74.7883 29.7705 74.2869 30.173 73.6654 30.4696C73.0581 30.7521 72.3942 30.8934 71.6739 30.8934C70.7558 30.8934 69.9437 30.7027 69.2375 30.3213C68.5312 29.9259 67.9733 29.3538 67.5637 28.6052C67.1682 27.8425 66.9705 26.9386 66.9705 25.8934V19.0078H69.9366V25.4696C69.9366 26.4018 70.1697 27.1222 70.6358 27.6307C71.1019 28.125 71.7375 28.3722 72.5425 28.3722C73.3618 28.3722 74.0044 28.125 74.4705 27.6307C74.9366 27.1222 75.1697 26.4018 75.1697 25.4696V19.0078H78.157ZM84.0496 20.8298C84.431 20.2083 84.9253 19.721 85.5327 19.3679C86.1541 19.0148 86.8604 18.8383 87.6513 18.8383V21.9527H86.8674C85.9352 21.9527 85.229 22.1716 84.7488 22.6095C84.2827 23.0473 84.0496 23.81 84.0496 24.8976V30.7451H81.0835V19.0078H84.0496V20.8298ZM92.6152 20.7239C92.9966 20.1589 93.5192 19.6999 94.183 19.3467C94.861 18.9936 95.6308 18.8171 96.4924 18.8171C97.4952 18.8171 98.3992 19.0643 99.2042 19.5586C100.023 20.053 100.666 20.7592 101.132 21.6773C101.612 22.5812 101.853 23.6335 101.853 24.834C101.853 26.0346 101.612 27.101 101.132 28.0332C100.666 28.9513 100.023 29.6646 99.2042 30.173C98.3992 30.6815 97.4952 30.9357 96.4924 30.9357C95.6167 30.9357 94.8469 30.7663 94.183 30.4273C93.5333 30.0742 93.0107 29.6222 92.6152 29.0713V30.7451H89.6491V15.0671H92.6152V20.7239ZM98.8229 24.834C98.8229 24.1278 98.6746 23.5205 98.378 23.012C98.0955 22.4894 97.7141 22.0939 97.2339 21.8256C96.7678 21.5572 96.2593 21.423 95.7085 21.423C95.1717 21.423 94.6633 21.5643 94.183 21.8467C93.7169 22.1151 93.3356 22.5106 93.039 23.0332C92.7565 23.5558 92.6152 24.1702 92.6152 24.8764C92.6152 25.5826 92.7565 26.197 93.039 26.7196C93.3356 27.2422 93.7169 27.6448 94.183 27.9273C94.6633 28.1956 95.1717 28.3298 95.7085 28.3298C96.2593 28.3298 96.7678 28.1886 97.2339 27.9061C97.7141 27.6236 98.0955 27.2211 98.378 26.6985C98.6746 26.1759 98.8229 25.5544 98.8229 24.834ZM103.245 24.834C103.245 23.6476 103.478 22.5953 103.944 21.6773C104.425 20.7592 105.067 20.053 105.872 19.5586C106.692 19.0643 107.603 18.8171 108.605 18.8171C109.481 18.8171 110.244 18.9936 110.894 19.3467C111.557 19.6999 112.087 20.1448 112.483 20.6815V19.0078H115.47V30.7451H112.483V29.029C112.101 29.5798 111.572 30.0389 110.894 30.4061C110.23 30.7592 109.46 30.9357 108.584 30.9357C107.596 30.9357 106.692 30.6815 105.872 30.173C105.067 29.6646 104.425 28.9513 103.944 28.0332C103.478 27.101 103.245 26.0346 103.245 24.834ZM112.483 24.8764C112.483 24.1561 112.341 23.5417 112.059 23.0332C111.776 22.5106 111.395 22.1151 110.915 21.8467C110.435 21.5643 109.919 21.423 109.368 21.423C108.817 21.423 108.309 21.5572 107.843 21.8256C107.377 22.0939 106.995 22.4894 106.699 23.012C106.416 23.5205 106.275 24.1278 106.275 24.834C106.275 25.5403 106.416 26.1617 106.699 26.6985C106.995 27.2211 107.377 27.6236 107.843 27.9061C108.323 28.1886 108.831 28.3298 109.368 28.3298C109.919 28.3298 110.435 28.1956 110.915 27.9273C111.395 27.6448 111.776 27.2493 112.059 26.7408C112.341 26.2182 112.483 25.5968 112.483 24.8764ZM124.871 18.8383C126.269 18.8383 127.399 19.2832 128.261 20.173C129.122 21.0487 129.553 22.2775 129.553 23.8595V30.7451H126.587V24.262C126.587 23.3298 126.354 22.6165 125.888 22.1222C125.422 21.6137 124.786 21.3595 123.981 21.3595C123.162 21.3595 122.512 21.6137 122.032 22.1222C121.566 22.6165 121.333 23.3298 121.333 24.262V30.7451H118.367V19.0078H121.333V20.4696C121.728 19.9612 122.23 19.5657 122.837 19.2832C123.459 18.9866 124.137 18.8383 124.871 18.8383Z" fill="#CCD6F6"/>
<path d="M142.387 35.2225C140.755 35.2225 139.293 34.9576 138.001 34.428C136.709 33.8983 135.67 33.1144 134.887 32.0763C134.124 31.0381 133.721 29.7881 133.679 28.3263H139.463C139.548 29.1525 139.834 29.7881 140.321 30.233C140.808 30.6568 141.444 30.8686 142.228 30.8686C143.033 30.8686 143.668 30.6886 144.134 30.3284C144.601 29.947 144.834 29.428 144.834 28.7712C144.834 28.2203 144.643 27.7648 144.262 27.4046C143.901 27.0445 143.446 26.7479 142.895 26.5148C142.365 26.2818 141.603 26.0169 140.607 25.7203C139.166 25.2754 137.99 24.8305 137.079 24.3856C136.168 23.9407 135.384 23.2839 134.728 22.4152C134.071 21.5466 133.742 20.4131 133.742 19.0148C133.742 16.9385 134.495 15.3178 135.999 14.1525C137.503 12.9661 139.463 12.3728 141.878 12.3728C144.336 12.3728 146.317 12.9661 147.821 14.1525C149.325 15.3178 150.13 16.9491 150.236 19.0466H144.357C144.315 18.3262 144.05 17.7648 143.562 17.3623C143.075 16.9385 142.45 16.7267 141.687 16.7267C141.031 16.7267 140.501 16.9067 140.098 17.2669C139.696 17.6059 139.495 18.1038 139.495 18.7606C139.495 19.4809 139.834 20.0423 140.512 20.4449C141.19 20.8474 142.249 21.2818 143.69 21.7479C145.13 22.2351 146.295 22.7012 147.185 23.1462C148.096 23.5911 148.88 24.2373 149.537 25.0847C150.194 25.9322 150.522 27.0233 150.522 28.358C150.522 29.6292 150.194 30.7839 149.537 31.822C148.901 32.8602 147.969 33.6864 146.74 34.3008C145.512 34.9153 144.06 35.2225 142.387 35.2225ZM161.939 35.2542C160.201 35.2542 158.633 34.8835 157.235 34.1419C155.858 33.4004 154.767 32.3411 153.962 30.964C153.178 29.5869 152.786 27.9767 152.786 26.1335C152.786 24.3114 153.188 22.7118 153.994 21.3347C154.799 19.9364 155.9 18.8665 157.299 18.125C158.697 17.3834 160.265 17.0127 162.002 17.0127C163.739 17.0127 165.307 17.3834 166.705 18.125C168.104 18.8665 169.205 19.9364 170.011 21.3347C170.816 22.7118 171.218 24.3114 171.218 26.1335C171.218 27.9555 170.805 29.5657 169.979 30.964C169.174 32.3411 168.061 33.4004 166.642 34.1419C165.244 34.8835 163.676 35.2542 161.939 35.2542ZM161.939 30.5508C162.977 30.5508 163.856 30.1695 164.576 29.4068C165.318 28.6441 165.689 27.553 165.689 26.1335C165.689 24.714 165.328 23.6229 164.608 22.8601C163.909 22.0974 163.04 21.7161 162.002 21.7161C160.943 21.7161 160.064 22.0974 159.364 22.8601C158.665 23.6017 158.316 24.6928 158.316 26.1335C158.316 27.553 158.655 28.6441 159.333 29.4068C160.032 30.1695 160.9 30.5508 161.939 30.5508ZM191.612 17.2669V35H186.178V32.5847C185.627 33.3686 184.875 34.0042 183.921 34.4915C182.989 34.9576 181.951 35.1907 180.807 35.1907C179.451 35.1907 178.254 34.8941 177.216 34.3008C176.177 33.6864 175.372 32.8072 174.8 31.6631C174.228 30.5191 173.942 29.1737 173.942 27.6271V17.2669H179.345V26.8962C179.345 28.0826 179.652 29.0042 180.266 29.661C180.881 30.3178 181.707 30.6462 182.745 30.6462C183.805 30.6462 184.641 30.3178 185.256 29.661C185.87 29.0042 186.178 28.0826 186.178 26.8962V17.2669H191.612ZM206.32 17.0762C208.397 17.0762 210.049 17.7542 211.278 19.1101C212.528 20.4449 213.153 22.2881 213.153 24.6398V35H207.75V25.3707C207.75 24.1843 207.443 23.2627 206.829 22.6059C206.214 21.9491 205.388 21.6207 204.35 21.6207C203.312 21.6207 202.486 21.9491 201.871 22.6059C201.257 23.2627 200.95 24.1843 200.95 25.3707V35H195.515V17.2669H200.95V19.6186C201.5 18.8347 202.242 18.2203 203.174 17.7754C204.106 17.3093 205.155 17.0762 206.32 17.0762ZM215.849 26.1017C215.849 24.2796 216.188 22.6801 216.866 21.3029C217.565 19.9258 218.508 18.8665 219.694 18.125C220.881 17.3834 222.205 17.0127 223.667 17.0127C224.832 17.0127 225.891 17.2563 226.845 17.7436C227.819 18.2309 228.582 18.8877 229.133 19.714V11.483H234.567V35H229.133V32.4576C228.624 33.3051 227.893 33.983 226.94 34.4915C226.008 35 224.917 35.2542 223.667 35.2542C222.205 35.2542 220.881 34.8835 219.694 34.1419C218.508 33.3792 217.565 32.3093 216.866 30.9322C216.188 29.5339 215.849 27.9237 215.849 26.1017ZM229.133 26.1335C229.133 24.7775 228.751 23.7076 227.989 22.9237C227.247 22.1398 226.336 21.7479 225.256 21.7479C224.175 21.7479 223.254 22.1398 222.491 22.9237C221.749 23.6864 221.379 24.7457 221.379 26.1017C221.379 27.4576 221.749 28.5381 222.491 29.3432C223.254 30.1271 224.175 30.5191 225.256 30.5191C226.336 30.5191 227.247 30.1271 227.989 29.3432C228.751 28.5593 229.133 27.4894 229.133 26.1335Z" fill="#64FFDA"/>
<path d="M1 59.3471C38.3407 46.2369 122.433 27.1803 160.078 55.8354C197.723 84.4906 240.378 48.8121 257 27.391" stroke="#64FFDA" stroke-width="0.702332"/>
</svg>
